<svg xmlns="http://www.w3.org/2000/svg" viewBox="0 0 294.81 31"><defs><style>.cls-1{fill:#2e3192;}</style></defs><g id="レイヤー_2" data-name="レイヤー 2"><g id="レイヤー_1-2" data-name="レイヤー 1"><polygon class="cls-1" points="31 31 16.67 31 0 1.99 0 0 14.98 0 31 28.63 31 31"/><polygon points="0 31 0 8.26 13.21 31 0 31"/><polygon points="31 0 31 22.76 17.84 0 31 0"/><path d="M68.64,13.51a7.51,7.51,0,0,0-3.32,1.77A19.27,19.27,0,0,1,61,12.7L59.21,14H48l-.5-1.4a32.32,32.32,0,0,1-7,4l-1.21-1.4A25,25,0,0,0,49,6.72H41L40.2,4.58h10A20.1,20.1,0,0,0,51.52.8l4,.59a27.29,27.29,0,0,1-1.3,3.19h9.67l1.89-1.4L68.2,5,66,6.72H57.85a18.29,18.29,0,0,0,11.22,5.36ZM40.05,26.84a19.64,19.64,0,0,0,7-6.57l3.47,1.8a25,25,0,0,1-9.12,6.11Zm24.8-7.75H56.08v5.77L56.14,27V27c0,.71-.53,2.32-3.47,2.7-.9-1.18-2.36-1.74-4.62-2V26.16c1.18.09,2.08.12,2.76.12,1.61,0,1.89-.24,1.89-.8V19.09H42.44L41.66,17,62.87,17l1.77-1.24L67,17.51ZM59,10.84a19.08,19.08,0,0,1-3.13-4.12H53A22.33,22.33,0,0,1,48.33,12h9ZM64.64,28.3A25.7,25.7,0,0,0,58,21.91l1.37-1.24a31.52,31.52,0,0,1,8.09,4.5Z"/><path d="M100.41,27.59a6.36,6.36,0,0,0-3.63,1.67A18.26,18.26,0,0,1,84.5,17.51h-4V25a70.09,70.09,0,0,0,7-1.27l.19,1.93a115.34,115.34,0,0,1-13.89,3.84l-1.46-3.63c1.52-.09,3.19-.28,4.87-.46v-22l3.62.9h3.63V.92h3.75V4.33h4.19l.93-.9,3,1.4-.9.93V17.29l3.25,2.36a34.82,34.82,0,0,1-6.88,3.44A25.87,25.87,0,0,0,101.09,26ZM92,6.35H80.47V9.76H92Zm0,5.45H80.47v3.63H92Zm0,6.42v-.71H86.58A13.29,13.29,0,0,0,90.21,22a22.51,22.51,0,0,0,4.28-3.78Z"/><path d="M130.57,5.54h-25l-.78-2.11h12V.86h3.73V3.43h7.84l2.05-1.52,2.57,1.89Zm.5,21.4c0,.83-.47,2.26-3.38,2.51-.62-1.15-1.8-1.55-3.88-1.83v-.93h-2.17v-.87h-6v1.3h-3V18.63l3.13.89H122l.9-1,2.73,1.37-.93,1v5.24c.56,0,1,.06,1.43.06,1.33,0,1.61-.21,1.61-.71v-8H109.83V29.48h-3.29V14.69l3.45.9h18l1-1,3,1.4-1,1v7.88l.06,1.92Zm-7.26-12.62v-.75H113.33v.84h-3.19V6.56l3.35.81h10.57l.9-.9,3,1.4-.87,1v5.49Zm0-5.06H113.33v2.42h10.48Zm-2.17,12.16h-6v2.51h6Z"/><path d="M163.43,22.35H159v2.29l.06,2.11v.09c0,.75-.4,2.45-3.5,2.89-1-1.21-2.6-1.77-5.24-2.08V26.07c1.43.09,2.45.15,3.22.15,1.83,0,2.05-.28,2.05-.84v-3H137.33l-.81-2.05h19.1V18.66H159V20.3h2.42l1.8-1.36,2.32,1.73Zm-5.36-4.07v-.62h-14.2v1.09h-3.13V7l3.32.8h5.24v-2H137.7l-.81-2H149.3V1.08h3.28V3.71H161l1.77-1.27,2.36,1.71L163,5.73H152.58v2h5.71l1.11-1L162,8.11,161.2,9v9.24Zm-10,9.58A18.85,18.85,0,0,0,141.64,24l1-1.33a33.14,33.14,0,0,1,7.75,2ZM149.3,9.63h-5.43v2.11h5.43Zm0,3.94h-5.43V15.8h5.43Zm8.77-3.94h-5.49v2.11h5.49Zm0,3.94h-5.49V15.8h5.49Z"/><path d="M176.26,23.8V22.13h-3.07v3.38h-3.07V1.94l3.2.93h3.13l.9-1,2.76,1.43-.81.93V23.8Zm0-18.79h-3.07V20h3.07Zm21,23.07a6.39,6.39,0,0,0-3.1,1.06c-3.16-2.86-5-7.48-5.61-12.62-1.08,5.61-4.46,10.69-11.69,13.24l-1.36-1.4c8-3.47,10.29-10.17,10.29-17.77V10h3.51l-.1,1.37c.38,7.66,4.06,12.71,9.06,15.6Zm-6.13-14.29c.55-1.83,1.14-4.28,1.58-6.36H185a31.13,31.13,0,0,1-3.91,7.35l-1.8-.56A35.25,35.25,0,0,0,182.81.86l4,.65c-.27,1.27-.61,2.57-1,3.85h7.88l1-.87,3,1.86-1.09,1L193,14.19Z"/><path d="M224.88,29.73a38,38,0,0,0-9.59-4.47c-2.41,3.23-7.22,4-11.5,4.43L202.67,28c5.93-.78,9.31-2.23,10.36-5.18h-7.69l-.84-2.08h8.93c.1-.71.13-1.48.16-2.23h-4.43l-.53-1.36a37.25,37.25,0,0,1-6.92,4.77l-1.33-1.42a25.56,25.56,0,0,0,7.94-6.55H201.9l-.78-2h8.56a18.84,18.84,0,0,0,1.21-2.33h-6.11l-.74-2h7.63a20.41,20.41,0,0,0,.65-2.08h-8.87l-.81-2h10.14c.19-.93.38-2,.5-3l3.63.22c-.16,1-.38,1.89-.56,2.79h8.12l1.77-1.24,2.2,1.76L226.33,5.6H215.82c-.22.72-.46,1.43-.71,2.08h7.72l1.77-1.24,2.2,1.71-2.11,1.48h-5.3A16.69,16.69,0,0,0,220.91,12H226l1.77-1.24L230,12.45l-2.11,1.49h-5.3a19.28,19.28,0,0,0,8,4.07l-.56,1.3a4.86,4.86,0,0,0-3.13,1.33,16.79,16.79,0,0,1-4.62-3.35l-1.58,1.21h-3.66c0,.71-.09,1.49-.18,2.23h5.55l1.73-1.14,2.3,1.79-2.08,1.43H216.5a4.65,4.65,0,0,1-.37,1,86.72,86.72,0,0,1,11.69,2.79Zm-4.25-14.3a17.34,17.34,0,0,1-1.09-1.49h-7.9a20.81,20.81,0,0,1-2.33,2.58h9.83Zm-6.33-5.8A26,26,0,0,1,213,12h5.3a20.27,20.27,0,0,1-1-2.33Z"/><path d="M262.29,26.87A7.44,7.44,0,0,0,259,28.45a21.41,21.41,0,0,1-9.61-6.69v7.75h-3.35l.28-7.07a26.19,26.19,0,0,1-12.31,6.48l-1.12-1.4a26.41,26.41,0,0,0,10.48-6.6h-8.65L234,18.81h12.1V16.89l3.35.06v1.86h8.12l2-1.46,2.39,2-2.29,1.61H251c2.91,2.36,6.76,3.88,11.78,4.59ZM233.92,13.63A27.88,27.88,0,0,0,241,9.94l.93,1.55a33.2,33.2,0,0,1-5.67,5.31Zm5.4-4.09a20,20,0,0,0-5.06-5.15l1.18-1.33a30.58,30.58,0,0,1,6.3,3.19Zm10.73,6.88v-.68h-4.62v.75h-3V3.43l2.88.78a14.71,14.71,0,0,0,.81-3.44l4,.68a17.36,17.36,0,0,1-2.79,2.76h3l.9-.9,2.61,1.3-.87.93V16.42Zm0-10.38h-4.62V9h4.62Zm0,4.71h-4.62v3.19h4.62Zm9,5.55a19,19,0,0,0-5.46-5l1-1.3a31.14,31.14,0,0,1,7,3.07Zm-5.43-8.43A21,21,0,0,0,258,2.56L261.27,5a26.2,26.2,0,0,1-6.54,4.1Z"/><path d="M281.05,15.43H266.16l-.8-2.14h10l-1-.43a21,21,0,0,0,2.17-6.26l3.81,1.2A22.55,22.55,0,0,1,276,13.29h3.19L280.8,12l2.2,1.8Zm-.59-9.24H266.63l-.75-2.11h6.48V1h3.35V4.08h2.92l1.64-1.33,2.14,1.8Zm-3.29,22.7V27.83h-6v1.4h-3.11V17.17l3.29.9h6.17l.93-1,2.7,1.36-.9,1v9.4ZM270.26,13a15.51,15.51,0,0,0-2.08-5.61l1.42-.77a20.06,20.06,0,0,1,4.25,4.65Zm6.91,7.1h-6v5.68h6Zm6.14,9.4V1.2l3.22.87h4.34l.9-.87,3,1.92-1.15.9-3.47,7.29c1.8,1.8,4.09,4.46,4.09,8.21,0,1.71-.3,6.21-5.39,6.21a3.36,3.36,0,0,0-2.51-2.14v5.92Zm3.07-25.43v18a13.76,13.76,0,0,0,2.23.25c1,0,2.51-.1,2.51-3.13,0-2.86-1.95-5-3.47-6.52.77-2.35,1.64-5.89,2.26-8.65Z"/></g></g></svg>