<svg xmlns="http://www.w3.org/2000/svg" viewBox="0 0 230 33"><defs><style>.cls-1{fill:#0e177f;}</style></defs><g id="レイヤー_2" data-name="奈良高専吹奏楽部"><g id="レイヤー_1-2" data-name="レイヤー 1"><polygon class="cls-1" points="31 31.33 16.67 31.33 0 2.32 0 0.33 14.98 0.33 31 28.96 31 31.33"/><polygon points="0 31.33 0 8.58 13.21 31.33 0 31.33"/><polygon points="31 0.33 31 23.09 17.84 0.33 31 0.33"/><path d="M59.05,9.17a5.29,5.29,0,0,0-2.35,1.26,13.81,13.81,0,0,1-3-1.83l-1.29,1h-8l-.35-1a23.26,23.26,0,0,1-4.95,2.82l-.86-1a17.89,17.89,0,0,0,6.91-6H39.43l-.55-1.52H46A14,14,0,0,0,46.91.15l2.84.42a20.74,20.74,0,0,1-.93,2.27h6.87l1.34-1,1.72,1.32L57.21,4.36H51.4a13,13,0,0,0,8,3.8ZM38.77,18.64a13.84,13.84,0,0,0,5-4.67l2.46,1.28a17.51,17.51,0,0,1-6.46,4.33Zm17.6-5.5H50.14v4.09l0,1.49v.05c0,.5-.38,1.65-2.47,1.91-.64-.83-1.67-1.23-3.28-1.43v-1.1c.84.07,1.48.09,2,.09,1.15,0,1.34-.18,1.34-.57V13.14H40.46l-.55-1.46,15.05,0,1.26-.88L57.87,12ZM52.19,7.28A13.5,13.5,0,0,1,50,4.36h-2a15.91,15.91,0,0,1-3.3,3.72h6.41Zm4,12.39a18.12,18.12,0,0,0-4.71-4.53l1-.88a22.21,22.21,0,0,1,5.74,3.19Z"/><path d="M82.51,19.16a4.56,4.56,0,0,0-2.58,1.19A12.93,12.93,0,0,1,71.22,12H68.36v5.35a50.16,50.16,0,0,0,5-.9l.13,1.36a80,80,0,0,1-9.86,2.73l-1-2.57c1.08-.07,2.27-.2,3.45-.33V2l2.58.64h2.57V.24h2.67V2.66h3L77.45,2l2.13,1-.64.66v8.19l2.31,1.67A24.45,24.45,0,0,1,76.37,16,18.2,18.2,0,0,0,83,18ZM76.57,4.09H68.36V6.51h8.21Zm0,3.87H68.36v2.58h8.21Zm0,4.56V12H72.69a9.52,9.52,0,0,0,2.58,3.19,15.6,15.6,0,0,0,3-2.68Z"/><path d="M104.81,3.52H87L86.49,2H95V.2h2.64V2h5.57L104.66,1l1.83,1.34Zm.36,15.18c0,.6-.33,1.61-2.4,1.78-.44-.81-1.28-1.1-2.75-1.29v-.66H98.48v-.62H94.25v.92H92.12v-6l2.22.63H98.7l.64-.68,1.93,1-.66.73v3.71c.4,0,.73,0,1,0,.95,0,1.15-.16,1.15-.51V12H90.09v8.47H87.76V10l2.44.64h12.74l.71-.7,2.15,1-.68.74v5.59l0,1.37ZM100,9.75V9.22H92.58v.59H90.31V4.25l2.38.57h7.5l.64-.64,2.09,1-.61.68v3.9Zm0-3.59H92.58V7.88H100Zm-1.54,8.63H94.25v1.78h4.23Z"/><path d="M129,15.45h-3.13v1.62l0,1.5v.07c0,.52-.29,1.74-2.49,2-.73-.86-1.85-1.25-3.72-1.47V18.09c1,.06,1.74.11,2.29.11,1.3,0,1.45-.2,1.45-.6V15.45h-13L109.94,14h13.55V12.83h2.42V14h1.72l1.27-1,1.65,1.23Zm-3.81-2.89v-.44H115.15v.77h-2.22V4.53l2.35.57H119V3.65h-8.23l-.57-1.43H119V.35h2.33V2.22h6l1.25-.9,1.67,1.21-1.47,1.12h-7.42V5.1h4l.8-.7,1.87.95-.6.66v6.55Zm-7.09,6.8a13.23,13.23,0,0,0-4.57-2.75l.68-.94a23.36,23.36,0,0,1,5.5,1.4ZM119,6.42h-3.85v1.5H119Zm0,2.8h-3.85V10.8H119Zm6.23-2.8h-3.9v1.5h3.9Zm0,2.8h-3.9V10.8h3.9Z"/><path d="M139,16.48V15.29h-2.18v2.4h-2.17V1l2.26.66h2.23l.63-.71,2,1-.57.66V16.48Zm0-13.33h-2.18v10.6H139Zm14.9,16.37a4.38,4.38,0,0,0-2.2.74c-2.25-2-3.52-5.3-4-9a12,12,0,0,1-8.3,9.4l-1-1c5.68-2.46,7.31-7.21,7.31-12.6V6.67h2.48l-.06,1c.26,5.44,2.88,9,6.42,11.07ZM149.58,9.37c.4-1.29.82-3,1.13-4.51h-5.44a22.31,22.31,0,0,1-2.77,5.22l-1.28-.4A25,25,0,0,0,143.69.2l2.81.46c-.2.9-.44,1.83-.72,2.73h5.59l.68-.62,2.11,1.32-.77.68L151,9.66Z"/><path d="M174.44,20.68a26.71,26.71,0,0,0-6.8-3.17c-1.71,2.29-5.12,2.87-8.16,3.15l-.79-1.21c4.2-.55,6.6-1.58,7.35-3.67h-5.46L160,14.3h6.33c.07-.5.09-1.05.11-1.58h-3.14l-.38-1a26.46,26.46,0,0,1-4.9,3.39l-.95-1a18.17,18.17,0,0,0,5.63-4.65h-4.55l-.55-1.4h6.07a13.59,13.59,0,0,0,.86-1.66h-4.33L159.66,5h5.41a11.69,11.69,0,0,0,.46-1.48h-6.29l-.57-1.43h7.19c.13-.66.27-1.38.35-2.13l2.58.15c-.11.71-.27,1.35-.4,2h5.77l1.25-.88L177,2.51l-1.49,1.05H168c-.16.51-.33,1-.51,1.48H173l1.25-.88,1.57,1.21-1.5,1h-3.76a12.15,12.15,0,0,0,1.08,1.66h3.6l1.26-.89,1.58,1.24-1.49,1.05h-3.77a13.75,13.75,0,0,0,5.7,2.89l-.39.92a3.44,3.44,0,0,0-2.22,1,11.88,11.88,0,0,1-3.28-2.38l-1.13.86H168.9c0,.5-.07,1-.13,1.58h3.93l1.24-.81,1.62,1.27-1.47,1H168.5a3.29,3.29,0,0,1-.26.68,60.16,60.16,0,0,1,8.29,2Zm-3-10.14a10.67,10.67,0,0,1-.77-1.06h-5.61a14.91,14.91,0,0,1-1.65,1.83h7Zm-4.49-4.12c-.29.58-.57,1.13-.9,1.66h3.76a14.62,14.62,0,0,1-.73-1.66Z"/><path d="M201.9,18.66a5.32,5.32,0,0,0-2.31,1.12A15.23,15.23,0,0,1,192.77,15v5.5h-2.38l.2-5a18.46,18.46,0,0,1-8.74,4.6l-.79-1a18.72,18.72,0,0,0,7.44-4.69h-6.14l-.55-1.49h8.58V11.57l2.38,0v1.32h5.76l1.41-1,1.7,1.39L200,14.43h-6.14a16.65,16.65,0,0,0,8.36,3.26Zm-20.13-9.4a19.86,19.86,0,0,0,5-2.62l.66,1.11a24.25,24.25,0,0,1-4,3.76Zm3.83-2.9A14.16,14.16,0,0,0,182,2.71l.84-.95A22,22,0,0,1,187.31,4Zm7.61,4.88v-.48h-3.28v.53h-2.11V2l2,.55a10.21,10.21,0,0,0,.58-2.44l2.81.49a11.44,11.44,0,0,1-2,1.95h2.14l.64-.63,1.84.92-.61.66v7.72Zm0-7.37h-3.28V5.94h3.28Zm0,3.35h-3.28V9.48h3.28Zm6.36,3.94a13.35,13.35,0,0,0-3.88-3.53l.75-.92a22,22,0,0,1,4.93,2.18Zm-3.85-6a15,15,0,0,0,3.12-3.76l2.33,1.76a18.55,18.55,0,0,1-4.64,2.9Z"/><path d="M216.11,10.54H205.55L205,9h7.13l-.75-.31a15,15,0,0,0,1.54-4.44l2.7.86A16.1,16.1,0,0,1,212.5,9h2.27l1.16-.94,1.57,1.27ZM215.69,4h-9.81l-.53-1.49H210V.31h2.38V2.49h2.06l1.17-1,1.52,1.28Zm-2.33,16.11v-.75h-4.27v1h-2.2V11.77l2.33.64h4.38l.66-.68,1.92,1-.64.72v6.67ZM208.45,8.82a10.81,10.81,0,0,0-1.47-4l1-.55a14.56,14.56,0,0,1,3,3.3Zm4.91,5h-4.27v4h4.27Zm4.36,6.67V.44l2.29.62h3.08l.63-.62,2.16,1.36-.81.64L222.6,7.61a8.32,8.32,0,0,1,2.91,5.83c0,1.21-.22,4.4-3.83,4.4a2.38,2.38,0,0,0-1.78-1.51v4.2Zm2.18-18v12.8a9.31,9.31,0,0,0,1.58.18c.73,0,1.78-.07,1.78-2.22s-1.38-3.57-2.46-4.63c.55-1.67,1.16-4.18,1.6-6.13Z"/><path d="M40.85,24.42l1.29,2.3,1.29,2.45c0-.4,0-.77,0-1.13,0-.9,0-.9,0-1V25h-.75v-.58h2.11V25H44v5.42h-.71l-1.39-2.5-1.41-2.65,0,1.23v.56c0,.28,0,.49,0,.57v2.21h.74v.58H39.17v-.58h.75V25h-.75v-.58Z"/><path d="M45.34,27.51l.11-.89a2.06,2.06,0,0,1,1.42-.54,1.51,1.51,0,0,1,1.24.51c.18.23.21.44.21,1.24v2.06H49v.53H47.64V29.8a1.31,1.31,0,0,1-1.21.71,1.21,1.21,0,0,1-1.29-1.22A1.37,1.37,0,0,1,46.07,28a5.4,5.4,0,0,1,1.5-.4v-.15a1,1,0,0,0-.12-.59.79.79,0,0,0-.64-.23.88.88,0,0,0-.76.31c-.09.11-.1.19-.16.56Zm2.23.59a3.51,3.51,0,0,0-1.18.37.82.82,0,0,0-.48.74.66.66,0,0,0,.71.7.94.94,0,0,0,.85-.52,2.38,2.38,0,0,0,.1-.9Z"/><path d="M51.59,26.17v.55h-1v2a3,3,0,0,0,.06.89.47.47,0,0,0,.47.34,1.07,1.07,0,0,0,.53-.16v.62a1.88,1.88,0,0,1-.71.13,1,1,0,0,1-1-.53c-.1-.26-.11-.31-.11-1.27v-2H49.2v-.55h.62V24.92h.76v1.25Z"/><path d="M53.39,29.89H54v.53H52v-.53h.64V26.7H52v-.53h1.41Zm0-5.4v.81h-.92v-.81Z"/><path d="M57.6,26.61a2.39,2.39,0,0,1,.56,1.69A2.37,2.37,0,0,1,57.6,30a1.82,1.82,0,0,1-1.3.55A1.84,1.84,0,0,1,55,30a2.36,2.36,0,0,1-.56-1.72A2.38,2.38,0,0,1,55,26.61a1.84,1.84,0,0,1,1.31-.55A1.8,1.8,0,0,1,57.6,26.61Zm-2.36,1.66c0,1.11.36,1.69,1.06,1.69s1.05-.58,1.05-1.67S57,26.62,56.3,26.62,55.24,27.21,55.24,28.27Z"/><path d="M60,26.87a1.24,1.24,0,0,1,1.19-.79,1.17,1.17,0,0,1,1.14.7,3.06,3.06,0,0,1,.1,1.23v1.88h.65v.53h-2v-.53h.53v-2a2.19,2.19,0,0,0-.07-.83.62.62,0,0,0-.61-.36.9.9,0,0,0-.78.44,1.66,1.66,0,0,0-.17.95v1.77h.53v.53H58.61v-.53h.65V26.7h-.65v-.53H60Z"/><path d="M63.59,27.51l.11-.89a2.08,2.08,0,0,1,1.43-.54,1.48,1.48,0,0,1,1.23.51c.18.23.21.44.21,1.24v2.06h.64v.53H65.89V29.8a1.3,1.3,0,0,1-1.21.71,1.21,1.21,0,0,1-1.29-1.22A1.37,1.37,0,0,1,64.32,28a5.52,5.52,0,0,1,1.5-.4v-.15a1,1,0,0,0-.12-.59.79.79,0,0,0-.64-.23.88.88,0,0,0-.76.31c-.08.11-.1.19-.16.56Zm2.23.59a3.51,3.51,0,0,0-1.18.37.82.82,0,0,0-.48.74.66.66,0,0,0,.71.7.93.93,0,0,0,.85-.52,2.38,2.38,0,0,0,.1-.9Z"/><path d="M69,29.89h.64v.53H67.52v-.53h.65v-5h-.65V24.4H69Z"/><path d="M74.35,24.42V25h-.76v4.84h.76v.58H72v-.58h.74V25H72v-.58Z"/><path d="M76.1,26.87a1.24,1.24,0,0,1,1.19-.79,1.17,1.17,0,0,1,1.14.7,3.06,3.06,0,0,1,.1,1.23v1.88h.65v.53h-2v-.53h.53v-2a2.19,2.19,0,0,0-.07-.83.62.62,0,0,0-.61-.36.9.9,0,0,0-.78.44,1.66,1.66,0,0,0-.17.95v1.77h.53v.53H74.72v-.53h.65V26.7h-.65v-.53H76.1Z"/><path d="M81.93,27.53a.85.85,0,0,0-.9-.92c-.43,0-.71.25-.71.59s.17.42.73.64a4.72,4.72,0,0,1,1.13.52,1,1,0,0,1,.41.85,1.32,1.32,0,0,1-1.43,1.31,1.27,1.27,0,0,1-1.12-.6l0,.52h-.49V29H80a1.1,1.1,0,0,0,1.08,1,.65.65,0,0,0,.74-.63c0-.31-.15-.44-.76-.68a4,4,0,0,1-1.16-.56,1.08,1.08,0,0,1-.35-.8,1.26,1.26,0,0,1,1.33-1.24,1.29,1.29,0,0,1,1,.47l0-.4h.49v1.39Z"/><path d="M85.3,26.17v.55h-1v2a3,3,0,0,0,.06.89.47.47,0,0,0,.48.34,1.1,1.1,0,0,0,.53-.16v.62a1.88,1.88,0,0,1-.71.13,1,1,0,0,1-1-.53c-.11-.26-.12-.31-.12-1.27v-2h-.61v-.55h.61V24.92h.76v1.25Z"/><path d="M87.1,29.89h.65v.53H85.69v-.53h.65V26.7h-.65v-.53H87.1Zm0-5.4v.81h-.92v-.81Z"/><path d="M90.4,26.17v.55h-1v2a3.62,3.62,0,0,0,0,.89.49.49,0,0,0,.48.34,1.1,1.1,0,0,0,.53-.16v.62a1.88,1.88,0,0,1-.71.13,1,1,0,0,1-1-.53c-.11-.26-.12-.31-.12-1.27v-2H88v-.55h.61V24.92h.77v1.25Z"/><path d="M92.12,28.46c0,.81,0,.84.08,1a.71.71,0,0,0,.68.39.94.94,0,0,0,.8-.43,1.75,1.75,0,0,0,.17-1V26.7H93.2v-.53h1.42v3.72h.65v.53H93.91v-.71a1.3,1.3,0,0,1-1.22.8,1.26,1.26,0,0,1-1.25-.84,4.08,4.08,0,0,1-.08-1.15V26.7h-.65v-.53h1.41Z"/><path d="M97.9,26.17v.55h-1v2a3,3,0,0,0,.06.89.47.47,0,0,0,.47.34,1.1,1.1,0,0,0,.54-.16v.62a1.9,1.9,0,0,1-.72.13,1,1,0,0,1-1-.53c-.1-.26-.11-.31-.11-1.27v-2h-.61v-.55h.61V24.92h.76v1.25Z"/><path d="M99.16,28.38a2.39,2.39,0,0,0,.17,1,.92.92,0,0,0,.88.56.9.9,0,0,0,1-.84h.71a1.55,1.55,0,0,1-1.67,1.4c-1.12,0-1.85-.86-1.85-2.18s.76-2.25,1.85-2.25,1.73.85,1.73,2.12a1.21,1.21,0,0,1,0,.18Zm2-.52c0-.82-.3-1.22-.9-1.22s-.95.45-1,1.22Z"/><path d="M107.75,26.61a2.39,2.39,0,0,1,.56,1.69,2.37,2.37,0,0,1-.56,1.68,1.84,1.84,0,0,1-1.31.55,1.82,1.82,0,0,1-1.3-.55,2.36,2.36,0,0,1-.56-1.72,2.38,2.38,0,0,1,.56-1.65,1.82,1.82,0,0,1,2.61,0Zm-2.36,1.66c0,1.11.36,1.69,1,1.69s1.06-.58,1.06-1.67-.37-1.67-1.06-1.67S105.39,27.21,105.39,28.27Z"/><path d="M111.18,26.17v.56h-1v3.16H111v.53h-2.2v-.53h.65V26.73h-.62v-.56h.62v-.38c0-.62,0-.83.23-1.07a1.17,1.17,0,0,1,1-.4,1.75,1.75,0,0,1,.76.15v.65a1.25,1.25,0,0,0-.66-.23.48.48,0,0,0-.49.35,2.71,2.71,0,0,0,0,.58v.35Z"/><path d="M117.94,24.42v1.52h-.61V25h-1.25v4.82h.75v.58h-2.29v-.58h.75V25H114v.92h-.61V24.42Z"/><path d="M119,28.38a2.39,2.39,0,0,0,.17,1,.93.93,0,0,0,.89.56.9.9,0,0,0,1-.84h.71a1.54,1.54,0,0,1-1.67,1.4c-1.12,0-1.85-.86-1.85-2.18s.76-2.25,1.85-2.25,1.73.85,1.73,2.12v.18Zm2-.52c0-.82-.31-1.22-.9-1.22s-1,.45-1,1.22Z"/><path d="M125.61,26.15v1.43h-.56c-.06-.59-.37-.92-.87-.92-.65,0-1,.62-1,1.66s.38,1.61,1,1.61.78-.3.88-.9h.65a1.48,1.48,0,0,1-1.56,1.48c-1.07,0-1.78-.85-1.78-2.15s.74-2.28,1.76-2.28a1.18,1.18,0,0,1,1,.45v-.38Z"/><path d="M127.5,26.78a1.38,1.38,0,0,1,2.33-.12c.16.27.17.35.17,1.35v1.88h.64v.53h-2v-.53h.59v-2a2.43,2.43,0,0,0-.06-.78.7.7,0,0,0-.7-.41.91.91,0,0,0-.83.51,1.79,1.79,0,0,0-.14.9v1.75h.6v.53h-2v-.53h.65v-5h-.65V24.4h1.41Z"/><path d="M132.33,26.87a1.24,1.24,0,0,1,1.19-.79,1.17,1.17,0,0,1,1.14.7,3.06,3.06,0,0,1,.1,1.23v1.88h.64v.53h-1.94v-.53H134v-2a2.19,2.19,0,0,0-.07-.83.62.62,0,0,0-.61-.36.9.9,0,0,0-.78.44,1.66,1.66,0,0,0-.17.95v1.77h.53v.53H131v-.53h.65V26.7H131v-.53h1.38Z"/><path d="M139,26.61a2.39,2.39,0,0,1,.56,1.69A2.37,2.37,0,0,1,139,30a1.82,1.82,0,0,1-2.61,0,2.36,2.36,0,0,1-.56-1.72,2.38,2.38,0,0,1,.56-1.65,1.84,1.84,0,0,1,1.31-.55A1.8,1.8,0,0,1,139,26.61Zm-2.36,1.66c0,1.11.36,1.69,1.06,1.69s1-.58,1-1.67-.37-1.67-1-1.67S136.59,27.21,136.59,28.27Z"/><path d="M141.39,29.89H142v.53H140v-.53h.64v-5H140V24.4h1.43Z"/><path d="M145.6,26.61a2.39,2.39,0,0,1,.56,1.69A2.37,2.37,0,0,1,145.6,30,1.82,1.82,0,0,1,143,30a2.36,2.36,0,0,1-.56-1.72,2.38,2.38,0,0,1,.56-1.65,1.84,1.84,0,0,1,1.31-.55A1.8,1.8,0,0,1,145.6,26.61Zm-2.36,1.66c0,1.11.36,1.69,1.06,1.69s1-.58,1-1.67-.37-1.67-1-1.67S143.24,27.21,143.24,28.27Z"/><path d="M150.45,26.67h-.93a1.12,1.12,0,0,1,.44.91,1.09,1.09,0,0,1-.35.85,2.05,2.05,0,0,1-1,.47c-.72.2-.87.28-.87.46s.15.23.49.26a4.29,4.29,0,0,1,1.51.31,1,1,0,0,1,.58.95c0,.88-.68,1.38-1.89,1.38S146.5,31.8,146.5,31c0-.54.31-.86,1-1-.41-.13-.55-.25-.55-.48s.28-.53.9-.68a1.23,1.23,0,0,1-1-1.25,1.33,1.33,0,0,1,.79-1.23,2.31,2.31,0,0,1,1-.16h1.79ZM147.16,31c0,.49.47.77,1.28.77s1.21-.29,1.21-.77-.44-.74-1.22-.74S147.16,30.51,147.16,31Zm.44-3.43a.83.83,0,1,0,1.65,0,.78.78,0,0,0-.81-.83A.81.81,0,0,0,147.6,27.52Z"/><path d="M152.49,26.17v.53H152l.45,1.39c.12.37.12.4.19.6l0,.16.14.45c0,.17.07.27.08.3.07-.24.16-.53.22-.76s.18-.58.24-.75l.47-1.39h-.53v-.53H155v.53h-.64l-1.32,3.83c-.3.89-.39,1-.64,1.31a1.67,1.67,0,0,1-1.21.42H151V31.7c.84,0,1.11-.19,1.39-.94l.06-.21-1.3-3.85h-.68v-.53Z"/><path d="M156.37,29.41v1l-.71,1.14h-.54l.8-1.14h-.58v-1Z"/><path d="M160.68,24.42l1.28,2.3c.68,1.27.89,1.67,1.29,2.45,0-.4,0-.77,0-1.13,0-.9,0-.9,0-1V25h-.75v-.58h2.11V25h-.75v5.42h-.71l-1.38-2.5-1.42-2.65,0,1.23v.56c0,.28,0,.49,0,.57v2.21h.75v.58H159v-.58h.75V25H159v-.58Z"/><path d="M165.17,27.51l.1-.89a2.08,2.08,0,0,1,1.43-.54,1.48,1.48,0,0,1,1.23.51c.18.23.22.44.22,1.24v2.06h.63v.53h-1.32V29.8a1.29,1.29,0,0,1-1.2.71,1.21,1.21,0,0,1-1.3-1.22A1.37,1.37,0,0,1,165.9,28a5.3,5.3,0,0,1,1.49-.4v-.15a1,1,0,0,0-.12-.59.78.78,0,0,0-.64-.23.88.88,0,0,0-.76.31c-.08.11-.1.19-.15.56Zm2.22.59a3.51,3.51,0,0,0-1.18.37.82.82,0,0,0-.48.74.66.66,0,0,0,.71.7.93.93,0,0,0,.85-.52,2.38,2.38,0,0,0,.1-.9Z"/><path d="M170.45,26.83c.31-.52.57-.7,1-.7a1,1,0,0,1,.77.37v.95h-.56c0-.56-.15-.72-.47-.72a.71.71,0,0,0-.63.59,4.83,4.83,0,0,0-.09,1.26v1.31h.74v.53h-2.15v-.53h.65V26.7h-.65v-.53h1.36Z"/><path d="M172.6,27.51l.11-.89a2.06,2.06,0,0,1,1.42-.54,1.48,1.48,0,0,1,1.23.51c.18.23.22.44.22,1.24v2.06h.63v.53H174.9V29.8a1.31,1.31,0,0,1-1.21.71,1.21,1.21,0,0,1-1.3-1.22,1.38,1.38,0,0,1,.94-1.28,5.41,5.41,0,0,1,1.49-.4v-.15a1,1,0,0,0-.11-.59.8.8,0,0,0-.64-.23.91.91,0,0,0-.77.31c-.08.11-.1.19-.15.56Zm2.22.59a3.6,3.6,0,0,0-1.18.37.83.83,0,0,0-.47.74.66.66,0,0,0,.71.7.92.92,0,0,0,.84-.52,2.19,2.19,0,0,0,.1-.9Z"/><path d="M183.28,24.41v1.76h-.62a1.89,1.89,0,0,0-.2-.72,1.34,1.34,0,0,0-1.15-.54c-1.1,0-1.73.91-1.73,2.54s.61,2.48,1.64,2.48c.86,0,1.36-.55,1.44-1.58h.64a2,2,0,0,1-2.11,2.2c-1.55,0-2.47-1.16-2.47-3.1s.95-3.15,2.48-3.15a2,2,0,0,1,1.47.55v-.44Z"/><path d="M187,26.61a2.39,2.39,0,0,1,.56,1.69A2.37,2.37,0,0,1,187,30a1.82,1.82,0,0,1-2.61,0,2.36,2.36,0,0,1-.56-1.72,2.38,2.38,0,0,1,.56-1.65,1.84,1.84,0,0,1,1.3-.55A1.8,1.8,0,0,1,187,26.61Zm-2.36,1.66c0,1.11.36,1.69,1.05,1.69s1.06-.58,1.06-1.67-.37-1.67-1.06-1.67S184.64,27.21,184.64,28.27Z"/><path d="M189.44,29.89h.64v.53H188v-.53h.65v-5H188V24.4h1.43Z"/><path d="M191.84,29.89h.64v.53h-2.07v-.53h.65v-5h-.65V24.4h1.43Z"/><path d="M193.69,28.38a2.24,2.24,0,0,0,.17,1,.92.92,0,0,0,.88.56.89.89,0,0,0,.95-.84h.72a1.55,1.55,0,0,1-1.68,1.4c-1.11,0-1.84-.86-1.84-2.18s.75-2.25,1.84-2.25,1.74.85,1.74,2.12a1.21,1.21,0,0,1,0,.18Zm1.95-.52c0-.82-.31-1.22-.9-1.22s-1,.45-1,1.22Z"/><path d="M200.76,26.67h-.93a1.12,1.12,0,0,1,.44.91,1.09,1.09,0,0,1-.35.85,2.05,2.05,0,0,1-1,.47c-.72.2-.87.28-.87.46s.14.23.49.26a4.29,4.29,0,0,1,1.51.31,1,1,0,0,1,.58.95c0,.88-.68,1.38-1.89,1.38s-1.94-.46-1.94-1.25c0-.54.31-.86,1-1-.41-.13-.55-.25-.55-.48s.28-.53.9-.68a1.23,1.23,0,0,1-1-1.25,1.33,1.33,0,0,1,.79-1.23,2.31,2.31,0,0,1,1-.16h1.79ZM197.47,31c0,.49.47.77,1.28.77S200,31.43,200,31s-.44-.74-1.22-.74S197.47,30.51,197.47,31Zm.44-3.43a.83.83,0,1,0,1.65,0,.78.78,0,0,0-.81-.83A.81.81,0,0,0,197.91,27.52Z"/><path d="M201.9,28.38a2.11,2.11,0,0,0,.17,1A.91.91,0,0,0,203,30a.9.9,0,0,0,1-.84h.71a1.54,1.54,0,0,1-1.67,1.4c-1.12,0-1.85-.86-1.85-2.18s.76-2.25,1.85-2.25,1.74.85,1.74,2.12a1.21,1.21,0,0,1,0,.18Zm1.95-.52c0-.82-.31-1.22-.9-1.22s-1,.45-1,1.22Z"/><path d="M208.91,24.42c1.19,0,1.42,0,1.76.18a1.35,1.35,0,0,1,.8,1.3,1.25,1.25,0,0,1-.94,1.3,1.44,1.44,0,0,1,1.23,1.49,1.65,1.65,0,0,1-.93,1.52,3.9,3.9,0,0,1-1.76.21h-1.83v-.58H208V25h-.75v-.58ZM209.2,27a1.92,1.92,0,0,0,1-.15.9.9,0,0,0,.45-.83.86.86,0,0,0-.53-.87,3,3,0,0,0-.94-.09h-.4V27Zm0,2.85a2.31,2.31,0,0,0,1.22-.19,1,1,0,0,0,.46-.93,1,1,0,0,0-.53-1,2.39,2.39,0,0,0-1.17-.14h-.43v2.24Z"/><path d="M212.43,27.51l.1-.89a2.08,2.08,0,0,1,1.43-.54,1.48,1.48,0,0,1,1.23.51c.18.23.21.44.21,1.24v2.06H216v.53h-1.31V29.8a1.3,1.3,0,0,1-1.21.71,1.21,1.21,0,0,1-1.29-1.22,1.37,1.37,0,0,1,.93-1.28,5.52,5.52,0,0,1,1.5-.4v-.15a1,1,0,0,0-.12-.59.79.79,0,0,0-.64-.23.88.88,0,0,0-.76.31c-.08.11-.1.19-.16.56Zm2.22.59a3.51,3.51,0,0,0-1.18.37.82.82,0,0,0-.48.74.66.66,0,0,0,.71.7.93.93,0,0,0,.85-.52,2.38,2.38,0,0,0,.1-.9Z"/><path d="M217.73,26.87a1.24,1.24,0,0,1,1.19-.79,1.17,1.17,0,0,1,1.14.7,3.06,3.06,0,0,1,.1,1.23v1.88h.65v.53h-1.95v-.53h.53v-2a2.19,2.19,0,0,0-.07-.83.62.62,0,0,0-.61-.36.9.9,0,0,0-.78.44,1.66,1.66,0,0,0-.17.95v1.77h.53v.53h-1.94v-.53H217V26.7h-.65v-.53h1.38Z"/><path d="M224.77,24.4v5.49h.64v.53h-1.36v-.65a1.27,1.27,0,0,1-1.18.74c-1,0-1.69-.94-1.69-2.21s.73-2.22,1.69-2.22a1.28,1.28,0,0,1,1.18.74V24.93h-.64V24.4ZM222,28.27c0,1.09.37,1.68,1,1.68s1-.6,1-1.65-.38-1.66-1-1.66S222,27.24,222,28.27Z"/></g></g></svg>