<?xml version="1.0" encoding="utf-8"?>
<!-- Generator: Adobe Illustrator 24.2.3, SVG Export Plug-In . SVG Version: 6.00 Build 0)  -->
<svg version="1.1" id="レイヤー_1" xmlns="http://www.w3.org/2000/svg" xmlns:xlink="http://www.w3.org/1999/xlink" x="0px"
	 y="0px" viewBox="0 0 202.5 36.5" style="enable-background:new 0 0 202.5 36.5;" xml:space="preserve">
<g id="レイヤー_2_1_">
	<g id="レイヤー_1-2">
		<path d="M23.6,10.2c-1,0.2-1.8,0.7-2.5,1.4c-1.2-0.6-2.3-1.2-3.2-2l-1.4,1.1H8L7.6,9.7C6,10.9,4.2,12,2.3,12.8l-1-1.1
			c3-1.6,5.6-3.8,7.4-6.7H2.6L1.9,3.2h7.6c0.4-1,0.8-2,1-3l3,0.4c-0.3,0.9-0.6,1.7-1,2.6H20l1.4-1.1l1.8,1.4l-1.6,1.3h-6.2
			c2.3,2.4,5.4,3.9,8.6,4.2L23.6,10.2z M1.8,20.7c2.1-1.2,4.1-3,5.4-5.2l2.7,1.4c-1.9,2.1-4.3,3.8-7,4.8L1.8,20.7z M20.7,14.6h-6.7
			v4.6v1.7l0,0c0,0.6-0.4,1.8-2.7,2.1c-0.6-0.9-1.8-1.3-3.5-1.6v-1.2c0.9,0.1,1.6,0.1,2.1,0.1c1.3,0,1.4-0.2,1.4-0.7v-5H3.7
			l-0.5-1.7h16.1l1.4-1l1.8,1.3L20.7,14.6z M16.2,8.1c-1-1-1.7-2.1-2.4-3.2h-2.1c-1,1.6-2.1,2.9-3.5,4.1H15L16.2,8.1z M20.5,21.9
			c-1.4-2-3.1-3.7-5-5l1.1-1c2.3,0.9,4.3,2,6.1,3.6L20.5,21.9z"/>
		<path d="M48.7,21.3c-1.1,0.1-2,0.6-2.8,1.3c-4.4-1.3-7.9-4.8-9.3-9.3h-3.1v6c1.8-0.2,3.5-0.6,5.4-1l0.1,1.6c-3.4,1.2-7,2.2-10.6,3
			L27.3,20c1.2-0.1,2.5-0.2,3.6-0.3V2.2l2.8,0.7h2.8V0.2h2.9v2.7h3.2l0.8-0.7l2.3,1.1L45,4.1v9.1l2.5,1.9c-1.6,1.1-3.4,2-5.3,2.8
			c2.3,1.2,4.6,2,7.1,2.2L48.7,21.3z M42.4,4.6h-8.8v2.7h8.8V4.6z M42.4,8.9h-8.8v2.9h8.8V8.9z M42.4,13.9v-0.6h-4.2
			c0.6,1.3,1.6,2.6,2.8,3.6c1.2-0.9,2.3-1.9,3.2-3H42.4z"/>
		<path d="M72.6,3.9H53.5L53,2.2h9.1v-2h2.8v2h6l1.6-1.1l1.9,1.4L72.6,3.9z M73.1,20.8c0,0.7-0.3,1.8-2.6,2
			c-0.4-0.9-1.4-1.2-2.9-1.4v-0.8H66v-0.7h-4.5v1h-2.3v-6.7l2.4,0.7h4.7l0.6-0.8l2,1.1L68.2,16v4.1c0.4,0,0.8,0,1.1,0
			c1,0,1.3-0.2,1.3-0.6v-6.2H56.9v9.4h-2.5V11.1l2.6,0.7h13.7l0.8-0.8l2.4,1.1l-0.8,0.8v6.2V20.8L73.1,20.8z M67.5,10.9v-0.7h-7.9
			v0.7h-2.5V4.7l2.6,0.7h8l0.6-0.7l2.3,1.1L70,6.6v4.3L67.5,10.9z M67.5,6.9h-7.9v1.9h7.9V6.9z M65.9,16.5h-4.5v2h4.5V16.5z"/>
		<path d="M98.6,17.1h-3.3v1.8v1.7v0.1c0,0.6-0.3,1.9-2.7,2.2c-0.8-1-1.9-1.3-4-1.7V20c1.1,0.1,1.8,0.1,2.5,0.1
			c1.4,0,1.5-0.2,1.5-0.7V17H78.6l-0.4-1.4h14.6v-1.3h2.6v1.3h1.8l1.4-1.1l1.7,1.3L98.6,17.1z M94.5,14v-0.4H83.8v0.9h-2.4V5
			l2.5,0.7h4V4.1h-8.8l-0.6-1.6h9.4V0.3h2.5v2.1h6.4l1.3-1l1.8,1.3L98.3,4h-7.9v1.6h4.3l0.9-0.8l2,1L97,6.7v7.2h-2.5V14z M86.9,21.6
			c-1.4-1.3-3.1-2.4-4.9-3.1l0.8-1c2,0.2,4,0.8,5.9,1.6L86.9,21.6z M87.9,7.1h-4.1v1.7h4.1V7.1z M87.9,10.2h-4.1V12h4.1V10.2z
			 M94.6,7.1h-4.2v1.7h4.2V7.1z M94.6,10.2h-4.2V12h4.2V10.2z"/>
		<path d="M109.3,18.3V17H107v2.7h-2.4V1.1l2.5,0.8h2.4l0.6-0.8l2.1,1.1L111.6,3v15.5h-2.3V18.3z M109.3,3.4H107v11.8h2.4V3.4z
			 M125.3,21.7c-0.9,0-1.6,0.3-2.4,0.8c-2.4-2.2-3.8-5.9-4.3-10c-0.9,4.9-4.3,9-8.9,10.5l-1.1-1.1c6.1-2.8,7.8-8,7.8-14V7.4h2.7
			l-0.1,1.1c0.3,6,3.1,10,6.9,12.3L125.3,21.7z M120.7,10.5c0.4-1.4,0.9-3.3,1.2-5h-5.8c-0.8,2.1-1.7,4-3,5.8l-1.4-0.4
			c1.5-3.3,2.5-6.9,2.7-10.6l3,0.6c-0.2,1-0.4,2-0.8,3h6l0.8-0.7l2.3,1.4l-0.9,0.8l-2.6,5.4L120.7,10.5z"/>
		<path d="M147.4,23c-2.3-1.6-4.7-2.7-7.3-3.6c-1.8,2.6-5.5,3.2-8.8,3.4l-0.9-1.3c4.5-0.6,7.1-1.8,7.9-4.1h-5.9l-0.6-1.7h6.8
			c0.1-0.6,0.1-1.2,0.1-1.8h-3.3l-0.4-1.1c-1.6,1.4-3.3,2.7-5.3,3.8l-1-1.1c2.4-1.3,4.4-3,6-5.1h-4.9l-0.6-1.6h6.5
			c0.3-0.6,0.6-1.2,1-1.9h-4.6l-0.5-1.4h5.8c0.2-0.6,0.3-1.1,0.5-1.7h-6.8l-0.6-1.6h7.7c0.1-0.8,0.3-1.6,0.4-2.3l2.8,0.2
			c-0.1,0.8-0.3,1.6-0.4,2.2h6.2l1.3-1l1.7,1.4L148.6,4h-8.2c-0.2,0.6-0.3,1.1-0.5,1.7h5.9l1.3-1l1.7,1.3l-1.6,1.1h-4.1
			c0.3,0.7,0.8,1.2,1.2,1.9h3.9l1.4-1l1.7,1.3l-1.6,1.2h-4.1c1.7,1.6,3.9,2.7,6.1,3.2l-0.4,1c-0.9,0.1-1.7,0.4-2.4,1.1
			c-1.3-0.7-2.5-1.6-3.5-2.7l-1.2,1h-2.8c0,0.6-0.1,1.1-0.1,1.8h4.2l1.3-0.9l1.7,1.4l-1.6,1.1h-6c-0.1,0.2-0.1,0.6-0.3,0.8
			c3,0.6,6,1.2,8.9,2.2L147.4,23z M144.2,11.7c-0.3-0.3-0.5-0.8-0.9-1.2h-6c-0.5,0.8-1.2,1.4-1.7,2h7.5L144.2,11.7z M139.4,7.1
			c-0.3,0.7-0.6,1.2-1,1.9h4.1c-0.3-0.6-0.5-1.2-0.8-1.9C141.7,7.1,139.4,7.1,139.4,7.1z"/>
		<path d="M176.8,20.8c-0.9,0.2-1.7,0.7-2.5,1.2c-2.9-1-5.4-2.9-7.3-5.3v6.1h-2.6l0.2-5.6c-2.6,2.6-5.9,4.3-9.3,5.1l-0.9-1.1
			c3-1.1,5.8-2.9,7.9-5.2h-6.5l-0.6-1.7h9.2v-1.6h2.6v1.4h6.2l1.5-1.1l1.8,1.6l-1.7,1.3h-6.5c2.6,2,5.7,3.3,9,3.7L176.8,20.8z
			 M155.2,10.3c1.9-0.7,3.8-1.7,5.4-2.9l0.8,1.2c-1.3,1.6-2.7,3-4.3,4.2L155.2,10.3z M159.3,7.1c-1.1-1.6-2.4-3-3.9-4.1l0.9-1.1
			c1.7,0.7,3.3,1.4,4.8,2.4L159.3,7.1z M167.5,12.5v-0.6H164v0.6h-2.3V2.2l2.1,0.6c0.3-0.9,0.5-1.8,0.6-2.7l3,0.6
			c-0.6,0.8-1.4,1.6-2.1,2.2h2.3l0.6-0.7l1.9,1L169.6,4v8.6L167.5,12.5z M167.5,4.3H164v2.3h3.5V4.3H167.5z M167.5,8H164v2.6h3.5V8
			H167.5z M174.3,12.5c-1.1-1.6-2.6-2.9-4.2-3.9l0.9-1c1.8,0.6,3.6,1.4,5.3,2.4L174.3,12.5z M170.1,5.8c1.3-1.2,2.5-2.6,3.3-4.2
			l2.5,2c-1.5,1.3-3.2,2.4-4.9,3.2L170.1,5.8z"/>
		<path d="M192,11.7h-11.4l-0.5-1.7h7.6l-0.9-0.3c0.8-1.6,1.4-3.2,1.6-4.9l2.9,1c-0.9,1.7-2,3.1-3.3,4.3h2.5l1.3-1l1.7,1.4L192,11.7
			z M191.6,4.4h-10.5l-0.5-1.7h4.9V0.3h2.6v2.4h2.3l1.3-1.1l1.6,1.4L191.6,4.4z M189.1,22.3v-0.9h-4.6v1.1h-2.4V13l2.5,0.7h4.7
			l0.8-0.8l2,1.1l-0.6,0.8v7.4L189.1,22.3z M183.9,9.8c-0.2-1.6-0.8-3.1-1.6-4.4l1.1-0.7c1.3,1,2.4,2.3,3.2,3.7L183.9,9.8z
			 M189.1,15.3h-4.6v4.4h4.6V15.3z M193.7,22.8V0.6l2.5,0.7h3.3l0.6-0.7l2.4,1.6l-0.9,0.7L199,8.6c1.8,1.7,3,4,3.1,6.4
			c0,1.3-0.2,4.9-4.1,4.9c-0.3-0.9-1.1-1.6-1.9-1.7v4.7L193.7,22.8z M196.1,2.8V17c0.5,0.1,1.1,0.2,1.7,0.2c0.8,0,1.9-0.1,1.9-2.4
			s-1.5-4-2.7-5.1c0.6-1.9,1.3-4.7,1.7-6.8h-2.7V2.8z"/>
		<path d="M4.1,27.1l1.4,2.6l1.4,2.8c0-0.4,0-0.9,0-1.2c0-1,0-1,0-1.1v-2.2H6v-0.7h2.3v0.6H7.4v6H6.7L5.2,31l-1.5-2.9v1.3v0.7
			c0,0.3,0,0.6,0,0.7v2.4h0.8v0.7H2.3v-0.7h0.9v-5.4H2.3v-0.7H4.1z"/>
		<path d="M8.9,30.6l0.1-1c0.4-0.4,1-0.6,1.5-0.6s1,0.2,1.3,0.6C12,29.8,12,30,12,30.9v2.3h0.8v0.6h-1.5v-0.7
			c-0.2,0.6-0.8,0.8-1.3,0.8c-0.8,0-1.3-0.6-1.4-1.2v-0.1c0-0.7,0.4-1.2,1-1.4c0.5-0.2,1.1-0.3,1.6-0.4v-0.1c0-0.2,0-0.4-0.1-0.7
			c-0.2-0.2-0.4-0.3-0.6-0.2c-0.3,0-0.6,0.1-0.9,0.3c0,0.1,0,0.1-0.1,0.6H8.9z M11.3,31.2c-0.4,0.1-0.9,0.2-1.3,0.4
			c-0.3,0.1-0.5,0.4-0.5,0.8c0,0.4,0.3,0.8,0.6,0.8h0.1c0.4,0,0.8-0.2,0.9-0.6s0.1-0.7,0.1-1L11.3,31.2z"/>
		<path d="M15.6,29.1v0.6h-1.1v2.2c0,0.3,0,0.7,0.1,1c0.1,0.2,0.3,0.3,0.5,0.3s0.4-0.1,0.5-0.2v0.7c-0.2,0.1-0.5,0.1-0.8,0.1
			c-0.4,0-0.9-0.2-1.1-0.6c-0.1-0.3-0.1-0.3-0.1-1.4v-2.2h-0.6V29h0.6v-1.4h0.9v1.3h1V29.1z"/>
		<path d="M17.5,33.2h0.6v0.6H16v-0.6h0.6v-3.6H16v-0.6h1.5V33.2z M17.5,27.2v0.9h-1v-0.9H17.5z"/>
		<path d="M22,29.6c0.4,0.6,0.6,1.2,0.6,1.9s-0.2,1.3-0.6,1.9c-0.3,0.4-0.9,0.6-1.4,0.6c-0.5,0-1.1-0.2-1.4-0.6
			c-0.4-0.6-0.6-1.2-0.6-1.9s0.2-1.3,0.6-1.9c0.3-0.4,0.9-0.6,1.4-0.6C21.1,29,21.7,29.2,22,29.6z M19.5,31.5c0,1.2,0.4,1.9,1.2,1.9
			c0.8,0,1.1-0.7,1.1-1.9s-0.3-1.9-1.1-1.9C20,29.6,19.5,30.2,19.5,31.5z"/>
		<path d="M24.6,29.9c0.2-0.6,0.8-0.9,1.3-0.9c0.5,0,1,0.3,1.2,0.8c0.1,0.4,0.2,0.9,0.1,1.3v2.1h0.8v0.6h-2.1v-0.6h0.5V31
			c0-0.3,0-0.7-0.1-0.9s-0.4-0.4-0.6-0.4c-0.3,0-0.6,0.2-0.9,0.4c-0.1,0.3-0.2,0.7-0.2,1.1v2H25v0.6h-2v-0.6h0.8v-3.6H23v-0.6h1.6
			V29.9z"/>
		<path d="M28.4,30.6l0.1-1c0.4-0.4,1-0.6,1.5-0.6s1,0.2,1.3,0.6c0.2,0.2,0.2,0.4,0.2,1.3v2.3h0.6v0.6h-1.4v-0.7
			c-0.2,0.6-0.8,0.8-1.3,0.8c-0.8,0-1.3-0.6-1.4-1.2v-0.1c0-0.7,0.4-1.2,1-1.4c0.5-0.2,1.1-0.3,1.6-0.4v-0.1c0-0.2,0-0.4-0.1-0.7
			c-0.2-0.2-0.4-0.3-0.6-0.2c-0.3,0-0.6,0.1-0.9,0.3c-0.1,0.1-0.1,0.2-0.2,0.7L28.4,30.6z M30.8,31.2c-0.4,0.1-0.9,0.2-1.3,0.4
			c-0.3,0.1-0.5,0.4-0.5,0.8c0,0.4,0.3,0.8,0.6,0.8h0.1c0.4,0,0.8-0.2,0.9-0.6c0.1-0.3,0.1-0.7,0.1-1L30.8,31.2z"/>
		<path d="M34.2,33.2h0.6v0.6h-2.3v-0.6h0.8v-5.6h-0.8v-0.6h1.6V33.2z"/>
		<path d="M40,27.1v0.7h-0.9v5.3H40v0.7h-2.6v-0.7h0.8v-5.3h-0.8v-0.7H40z"/>
		<path d="M41.8,29.9c0.2-0.6,0.8-0.9,1.3-0.9s1,0.3,1.2,0.8c0.1,0.4,0.2,0.9,0.1,1.3v2.1h0.8v0.6H43v-0.6h0.5V31
			c0-0.3,0-0.7-0.1-0.9s-0.4-0.4-0.6-0.4c-0.3,0-0.6,0.2-0.9,0.4c-0.1,0.3-0.2,0.7-0.2,1.1v2h0.5v0.6h-2v-0.6H41v-3.6h-0.8v-0.6h1.5
			v0.8H41.8z"/>
		<path d="M48.2,30.6c0-0.6-0.3-1-0.9-1h-0.1c-0.4,0-0.8,0.2-0.8,0.7c0,0.4,0.2,0.4,0.8,0.7c0.4,0.1,0.9,0.3,1.2,0.6
			c0.3,0.2,0.4,0.6,0.4,1c0,0.8-0.6,1.4-1.4,1.4h-0.1c-0.5,0-1-0.2-1.2-0.7v0.6h-0.5v-1.6H46c0.1,0.7,0.5,1.1,1.2,1.1
			c0.4,0,0.8-0.2,0.8-0.7v-0.1c0-0.3-0.2-0.4-0.9-0.8c-0.4-0.1-0.9-0.3-1.3-0.7c-0.2-0.2-0.4-0.6-0.3-0.9c0-0.8,0.6-1.4,1.4-1.3
			c0,0,0,0,0.1,0c0.4,0,0.9,0.2,1.1,0.6V29h0.5v1.6L48.2,30.6z"/>
		<path d="M51.7,29.1v0.6h-1.1v2.2c0,0.3,0,0.7,0.1,1c0.1,0.2,0.3,0.4,0.5,0.3c0.2,0,0.4-0.1,0.5-0.2v0.7c-0.2,0.1-0.5,0.1-0.8,0.1
			c-0.4,0-0.9-0.2-1.1-0.6c-0.1-0.3-0.1-0.3-0.1-1.4v-2.2h-0.6V29h0.6v-1.4h0.9v1.3h1V29.1z"/>
		<path d="M53.6,33.2h0.8v0.6h-2.3v-0.6h0.8v-3.6h-0.8v-0.6h1.5C53.6,29.1,53.6,33.2,53.6,33.2z M53.6,27.2v0.9h-1v-0.9H53.6z"/>
		<path d="M57.2,29.1v0.6h-1.1v2.2c0,0.3,0,0.7,0,1c0.1,0.2,0.3,0.3,0.5,0.3s0.4-0.1,0.5-0.2v0.7c-0.2,0.1-0.5,0.1-0.8,0.1
			c-0.4,0-0.9-0.2-1.1-0.6c-0.1-0.3-0.1-0.3-0.1-1.4v-2.2h-0.6V29h0.6v-1.4h0.9v1.3h1.1V29.1z"/>
		<path d="M59,31.7c0,0.9,0,0.9,0.1,1.1c0.1,0.3,0.4,0.4,0.8,0.4s0.6-0.2,0.9-0.4c0.2-0.3,0.2-0.8,0.2-1.1v-1.9h-0.8v-0.6h1.5v4.1
			h0.8v0.6h-1.5v-0.8c-0.2,0.6-0.8,0.9-1.3,0.9c-0.6,0-1.2-0.3-1.3-0.9c-0.1-0.4-0.1-0.9-0.1-1.2v-2h-0.8v-0.6H59V31.7z"/>
		<path d="M65.2,29.1v0.6h-1.1v2.2c0,0.3,0,0.7,0.1,1c0.1,0.2,0.3,0.3,0.5,0.3c0.2,0,0.4-0.1,0.5-0.2v0.7c-0.2,0.1-0.5,0.1-0.8,0.1
			c-0.4,0-0.9-0.2-1.1-0.6c-0.1-0.3-0.1-0.3-0.1-1.4v-2.2h-0.6V29h0.6v-1.4h0.9v1.3h1V29.1z"/>
		<path d="M66.6,31.6c0,0.3,0,0.8,0.2,1.1c0.1,0.4,0.5,0.7,1,0.7c0.5,0.1,1-0.3,1.1-0.9l0,0h0.8c-0.1,0.9-0.9,1.7-1.8,1.6
			c-1.2,0-1.9-1-1.9-2.4s0.9-2.4,1.9-2.4c1.2,0,1.8,1,1.8,2.3c0,0.1,0,0.1,0,0.2L66.6,31.6z M68.8,31c0-0.9-0.3-1.3-1-1.3
			c-0.6,0-1,0.6-1.1,1.3H68.8z"/>
		<path d="M75.9,29.6c0.4,0.6,0.6,1.2,0.6,1.9s-0.2,1.3-0.6,1.9c-0.3,0.4-0.9,0.6-1.4,0.6s-1.1-0.2-1.4-0.6
			c-0.4-0.6-0.6-1.2-0.6-1.9s0.2-1.3,0.6-1.8C73.8,28.8,75,28.8,75.9,29.6L75.9,29.6z M73.3,31.5c0,1.2,0.4,1.9,1.1,1.9
			s1.2-0.7,1.2-1.9s-0.4-1.9-1.2-1.9S73.3,30.2,73.3,31.5z"/>
		<path d="M79.5,29.1v0.7h-1.1v3.6h0.9v0.6h-2.4v-0.6h0.8v-3.6H77v-0.7h0.6v-0.4c0-0.7,0-0.9,0.2-1.2c0.2-0.3,0.6-0.4,1.1-0.4
			c0.3,0,0.5,0,0.9,0.1v0.7c-0.2-0.1-0.4-0.2-0.8-0.2c-0.2,0-0.4,0.1-0.5,0.4c0,0.2,0,0.4,0,0.7v0.4H79.5z"/>
		<path d="M86.8,27.1v1.7h-0.6v-1h-1.3v5.3h0.9v0.7h-2.5v-0.7h0.9v-5.3h-1.6v1h-0.6v-1.7H86.8z"/>
		<path d="M87.9,31.6c0,0.3,0,0.8,0.2,1.1c0.2,0.4,0.5,0.7,1,0.7c0.5,0.1,1-0.3,1.1-0.9l0,0h0.8C90.8,33.4,90,34.1,89,34l0,0
			c-1.2,0-1.9-1-1.9-2.4s0.9-2.4,1.9-2.4s1.8,1,1.8,2.3v0.2L87.9,31.6z M90,31c0-0.9-0.3-1.3-1-1.3S88,30.2,88,31H90z"/>
		<path d="M94.9,29v1.6h-0.6c-0.1-0.7-0.4-1-1-1c-0.8,0-1.1,0.7-1.1,1.9c0,1.2,0.4,1.8,1.1,1.8c0.6,0,0.9-0.3,1-1h0.8
			c0,0.9-0.8,1.7-1.6,1.7h-0.1c-1.2,0-1.9-1-1.9-2.3c0-1.3,0.8-2.6,1.9-2.6c0.4,0,0.9,0.1,1.1,0.6v-0.4L94.9,29z"/>
		<path d="M97,29.8c0.4-0.8,1.3-1,2-0.6c0.2,0.1,0.3,0.2,0.5,0.4c0.1,0.2,0.1,0.3,0.1,1.4v2.1h0.6v0.6h-2.1v-0.6h0.6V31
			c0-0.3,0-0.6-0.1-0.9s-0.4-0.4-0.8-0.4c-0.4,0-0.8,0.2-0.9,0.6c-0.1,0.3-0.2,0.7-0.1,1v2h0.6v0.6h-2.1v-0.6h0.8v-5.6h-0.8v-0.6H97
			V29.8z"/>
		<path d="M102.2,29.9c0.2-0.6,0.8-0.9,1.3-0.9c0.5,0,1,0.3,1.2,0.8c0.1,0.4,0.2,0.9,0.1,1.3v2.1h0.6v0.6h-2v-0.6h0.5V31
			c0-0.3,0-0.7-0.1-0.9s-0.4-0.4-0.6-0.4c-0.3,0-0.6,0.2-0.9,0.4c-0.1,0.3-0.2,0.7-0.2,1.1v2h0.5v0.6h-1.9v-0.6h0.6v-3.6h-0.6v-0.6
			h1.5V29.9z"/>
		<path d="M109.3,29.6c0.4,0.6,0.6,1.2,0.6,1.9s-0.2,1.3-0.6,1.9c-0.8,0.8-2,0.8-2.8,0l0,0c-0.4-0.6-0.6-1.2-0.6-1.9
			s0.2-1.3,0.6-1.8c0.3-0.4,0.9-0.6,1.4-0.6C108.5,29,109,29.2,109.3,29.6z M106.9,31.5c0,1.2,0.4,1.9,1.2,1.9s1.1-0.7,1.1-1.9
			s-0.4-1.9-1.1-1.9S106.7,30.2,106.9,31.5L106.9,31.5z"/>
		<path d="M111.9,33.2h0.6v0.6h-2.1v-0.6h0.6v-5.6h-0.6v-0.6h1.5V33.2z"/>
		<path d="M116.4,29.6c0.4,0.6,0.6,1.2,0.6,1.9s-0.2,1.3-0.6,1.9c-0.8,0.8-2,0.8-2.8,0l0,0c-0.4-0.6-0.6-1.2-0.6-1.9
			s0.2-1.3,0.6-1.8c0.3-0.4,0.9-0.6,1.4-0.6C115.5,29,116.1,29.2,116.4,29.6z M113.9,31.5c0,1.2,0.4,1.9,1.2,1.9s1.1-0.7,1.1-1.9
			s-0.4-1.9-1.1-1.9S113.9,30.2,113.9,31.5z"/>
		<path d="M121.7,29.7h-1c0.3,0.2,0.4,0.7,0.4,1s-0.1,0.7-0.4,1c-0.3,0.2-0.6,0.4-1.1,0.6c-0.8,0.2-1,0.3-1,0.6
			c0,0.2,0.1,0.2,0.5,0.3c0.5,0,1.1,0.1,1.6,0.3c0.4,0.2,0.6,0.6,0.6,1.1c0,1-0.8,1.6-2,1.6c-1.3,0-2-0.6-2-1.4c0-0.6,0.3-1,1.1-1.1
			c-0.4-0.1-0.6-0.2-0.6-0.6s0.3-0.6,1-0.8c-0.6-0.1-1.1-0.7-1.1-1.3c0-0.6,0.3-1.1,0.9-1.3c0.3-0.1,0.8-0.2,1.1-0.2h1.9L121.7,29.7
			z M118.1,34.5c0,0.6,0.5,0.9,1.4,0.9c0.9,0,1.3-0.3,1.3-0.9c0-0.6-0.4-0.8-1.3-0.8C118.7,33.7,118.1,33.9,118.1,34.5z M118.5,30.7
			c-0.1,0.6,0.3,1,0.8,1c0.5,0.1,1-0.3,1-0.8c0-0.1,0-0.1,0-0.2c0-0.4-0.3-0.9-0.8-0.9h-0.1C119,29.7,118.5,30.1,118.5,30.7
			C118.5,30.6,118.5,30.6,118.5,30.7L118.5,30.7z"/>
		<path d="M123.8,29.1v0.6h-0.5l0.4,1.6c0.1,0.4,0.1,0.4,0.2,0.7v0.2l0.1,0.6c0,0.2,0.1,0.3,0.1,0.3c0.1-0.2,0.2-0.6,0.2-0.9
			s0.2-0.7,0.2-0.9l0.5-1.6h-0.5v-0.6h1.8v0.6h-0.6l-1.4,4.2c-0.3,1-0.4,1.1-0.6,1.4c-0.3,0.3-0.9,0.4-1.3,0.4h-0.2v-0.7
			c0.9,0,1.2-0.2,1.5-1l0.1-0.2l-1.4-4.3h-0.8V29h2.1V29.1z"/>
		<path d="M128,32.7v1.1l-0.8,1.2h-0.5l0.9-1.2h-0.6v-1.1H128z"/>
		<path d="M132.6,27.1l1.4,2.6c0.8,1.4,1,1.9,1.4,2.8c0-0.4,0-0.9,0-1.2c0-1,0-1,0-1.1v-2.2h-0.9v-0.7h2.3v0.6h-0.9v6h-0.8l-1.5-2.8
			l-1.5-2.9v1.3v0.7c0,0.3,0,0.6,0,0.7v2.4h0.9v0.7h-2.3v-0.7h0.9v-5.4h-0.9v-0.7H132.6z"/>
		<path d="M137.4,30.6l0.1-1c0.4-0.4,1-0.6,1.5-0.6c0.5,0,1,0.2,1.3,0.6c0.2,0.2,0.2,0.4,0.2,1.3v2.3h0.6v0.6h-1.4v-0.7
			c-0.2,0.6-0.8,0.8-1.3,0.8c-0.8,0-1.3-0.6-1.4-1.2v-0.1c0-0.7,0.4-1.2,1-1.4c0.5-0.2,1.1-0.3,1.6-0.4v-0.1c0-0.2,0-0.4-0.1-0.7
			c-0.2-0.2-0.4-0.3-0.6-0.2c-0.3,0-0.6,0.1-0.9,0.3c-0.1,0.1-0.1,0.2-0.1,0.7L137.4,30.6z M139.8,31.2c-0.4,0.1-0.9,0.2-1.3,0.4
			c-0.3,0.1-0.5,0.4-0.5,0.8c0,0.4,0.3,0.8,0.6,0.8h0.1c0.4,0,0.8-0.2,1-0.6c0.1-0.3,0.1-0.7,0.1-1L139.8,31.2z"/>
		<path d="M143.1,29.8c0.3-0.6,0.6-0.8,1.1-0.8c0.3,0,0.6,0.1,0.9,0.4v1.1h-0.6c0-0.7-0.1-0.8-0.5-0.8c-0.3,0-0.6,0.3-0.6,0.7
			c-0.1,0.4-0.1,0.9-0.1,1.4v1.4h0.8v0.6h-2.3v-0.6h0.6v-3.6h-0.6v-0.6h1.5L143.1,29.8z"/>
		<path d="M145.4,30.6l0.1-1c0.4-0.4,1-0.6,1.5-0.6s1,0.2,1.3,0.6c0.2,0.2,0.2,0.4,0.2,1.3v2.3h0.6v0.6h-1.4v-0.7
			c-0.2,0.6-0.8,0.8-1.3,0.8c-0.8,0-1.3-0.6-1.4-1.2v-0.1c0-0.7,0.4-1.2,1-1.4c0.5-0.2,1.1-0.3,1.6-0.4v-0.1c0-0.2,0-0.4-0.1-0.7
			c-0.2-0.2-0.4-0.3-0.6-0.2c-0.3,0-0.6,0.1-0.9,0.3c-0.1,0.1-0.1,0.2-0.1,0.7L145.4,30.6z M147.7,31.2c-0.4,0.1-0.9,0.2-1.3,0.4
			c-0.3,0.1-0.5,0.4-0.5,0.8c0,0.4,0.3,0.8,0.6,0.8h0.1c0.4,0,0.8-0.2,0.9-0.6c0.1-0.3,0.1-0.7,0.1-1L147.7,31.2z"/>
		<path d="M156.8,27.1v2h-0.6c0-0.3-0.1-0.6-0.2-0.8c-0.3-0.4-0.8-0.7-1.2-0.6c-1.2,0-1.8,1-1.8,2.8s0.6,2.8,1.7,2.8
			c1,0,1.5-0.6,1.5-1.8h0.6c0.1,1.2-0.8,2.3-1.9,2.4c-0.1,0-0.2,0-0.3,0c-1.7,0-2.7-1.3-2.7-3.4s1-3.4,2.7-3.4
			c0.5,0,1.2,0.2,1.6,0.6v-0.4h0.6V27.1z"/>
		<path d="M160.8,29.6c0.4,0.6,0.6,1.2,0.6,1.9s-0.2,1.3-0.6,1.9c-0.8,0.8-2,0.8-2.8,0l0,0c-0.4-0.6-0.6-1.2-0.6-1.9
			s0.2-1.3,0.6-1.8c0.3-0.3,0.9-0.6,1.4-0.6C160,29,160.5,29.2,160.8,29.6z M158.3,31.5c0,1.2,0.4,1.9,1.2,1.9
			c0.8,0,1.2-0.7,1.2-1.9s-0.4-1.9-1.2-1.9C158.8,29.6,158.3,30.2,158.3,31.5z"/>
		<path d="M163.5,33.2h0.6v0.6h-2.3v-0.6h0.6v-5.6h-0.6v-0.6h1.5L163.5,33.2z"/>
		<path d="M166.1,33.2h0.6v0.6h-2.3v-0.6h0.6v-5.6h-0.6v-0.6h1.5L166.1,33.2z"/>
		<path d="M168,31.6c0,0.3,0,0.8,0.2,1.1c0.1,0.4,0.5,0.7,1,0.7c0.5,0,1-0.3,1-0.9l0,0h0.8c-0.1,0.9-0.9,1.7-1.8,1.6
			c-1.2,0-1.9-1-1.9-2.4s0.9-2.4,1.9-2.4s1.8,1,1.8,2.3c0,0.1,0,0.1,0,0.2L168,31.6z M170.1,31c0-0.9-0.3-1.3-1-1.3
			s-1.1,0.6-1.1,1.3H170.1z"/>
		<path d="M175.6,29.7h-1c0.3,0.2,0.4,0.7,0.4,1s-0.1,0.7-0.4,1c-0.3,0.2-0.6,0.4-1.1,0.6c-0.8,0.2-1,0.3-1,0.6
			c0,0.2,0.1,0.2,0.5,0.3c0.5,0,1.1,0.1,1.6,0.3c0.4,0.2,0.6,0.6,0.6,1.1c0,1-0.8,1.6-2,1.6c-1.3,0-2-0.6-2-1.3c0-0.6,0.3-1,1.1-1.1
			c-0.4-0.1-0.6-0.2-0.6-0.6s0.3-0.6,1-0.8c-0.6-0.1-1.1-0.7-1.1-1.3c0-0.6,0.3-1.1,0.9-1.3c0.3-0.1,0.8-0.2,1.1-0.2h1.9L175.6,29.7
			z M172.1,34.5c0,0.6,0.5,0.9,1.4,0.9s1.3-0.3,1.3-0.9c0-0.6-0.4-0.8-1.3-0.8S172.1,33.9,172.1,34.5z M172.5,30.7
			c-0.1,0.6,0.3,1,0.8,1c0.5,0.1,1-0.3,1-0.8c0-0.1,0-0.1,0-0.2c0-0.4-0.3-0.9-0.8-0.9h-0.1C172.9,29.7,172.6,30.1,172.5,30.7
			C172.5,30.6,172.5,30.6,172.5,30.7L172.5,30.7z"/>
		<path d="M176.8,31.6c0,0.3,0,0.8,0.2,1.1c0.1,0.4,0.5,0.8,1,0.7c0.5,0.1,1-0.3,1.1-0.9l0,0h0.8c-0.1,0.9-0.9,1.7-1.8,1.6l0,0
			c-1.2,0-2-1-2-2.4s0.9-2.4,2-2.4c1.2,0,1.8,1,1.8,2.3c0,0.1,0,0.1,0,0.2L176.8,31.6z M178.9,31c0-0.9-0.3-1.3-1-1.3
			s-1.1,0.6-1.1,1.3H178.9z"/>
		<path d="M184.3,27.1c1.3,0,1.5,0,1.9,0.2c0.5,0.2,0.9,0.8,0.9,1.4s-0.4,1.3-1,1.4c0.8,0.1,1.4,0.9,1.3,1.7c0,0.7-0.3,1.3-1,1.7
			c-0.6,0.2-1.3,0.3-1.9,0.2h-1.9v-0.7h0.9v-5.3h-0.9v-0.7H184.3z M184.6,30c0.3,0,0.8,0,1.1-0.1c0.3-0.2,0.5-0.6,0.4-0.9
			c0-0.4-0.2-0.8-0.5-1c-0.3-0.1-0.6-0.1-1-0.1h-0.4V30H184.6z M184.6,33.2c0.4,0,0.9,0,1.3-0.2c0.3-0.2,0.5-0.7,0.5-1
			c0-0.4-0.2-0.9-0.5-1.1c-0.4-0.1-0.9-0.2-1.3-0.1h-0.4v2.4H184.6z"/>
		<path d="M188.2,30.6l0.1-1c0.4-0.4,1-0.6,1.5-0.6c0.5,0,1,0.2,1.3,0.6c0.2,0.2,0.2,0.4,0.2,1.3v2.3h0.6v0.6h-1.4v-0.7
			c-0.2,0.6-0.8,0.8-1.3,0.8c-0.8,0-1.3-0.6-1.4-1.2v-0.1c0-0.7,0.4-1.2,1-1.4c0.5-0.2,1.1-0.3,1.6-0.4v-0.1c0-0.2,0-0.4-0.1-0.7
			c-0.2-0.2-0.4-0.3-0.6-0.2c-0.3,0-0.6,0.1-0.9,0.3c-0.1,0.1-0.1,0.2-0.2,0.7L188.2,30.6z M190.5,31.2c-0.4,0.1-0.9,0.2-1.3,0.4
			c-0.3,0.1-0.5,0.4-0.5,0.8c0,0.4,0.3,0.8,0.6,0.8h0.1c0.4,0,0.8-0.2,1-0.6c0.1-0.3,0.1-0.7,0.1-1L190.5,31.2z"/>
		<path d="M193.9,29.9c0.2-0.6,0.8-0.9,1.3-0.9s1,0.3,1.2,0.8c0.1,0.4,0.2,0.9,0.1,1.3v2.1h0.6v0.6h-2v-0.6h0.5V31
			c0-0.3,0-0.7-0.1-0.9c-0.1-0.2-0.4-0.4-0.6-0.4c-0.3,0-0.6,0.2-0.9,0.4c-0.1,0.3-0.2,0.7-0.2,1.1v2h0.5v0.6h-2v-0.6h0.8v-3.6h-0.6
			v-0.6h1.5V29.9z"/>
		<path d="M201.4,27.1v6.1h0.6v0.6h-1.5v-0.7c-0.2,0.6-0.8,0.9-1.3,0.8c-1.1,0-1.8-1-1.8-2.4s0.8-2.4,1.8-2.4c0.5,0,1.1,0.3,1.3,0.8
			v-2.1h-0.6v-0.6H201.4z M198.4,31.5c0,1.2,0.4,1.9,1.1,1.9c0.6,0,1.1-0.7,1.1-1.8c0-1.1-0.4-1.9-1.1-1.9
			C198.8,29.7,198.4,30.2,198.4,31.5z"/>
	</g>
</g>
</svg>
